<svg width="21" height="21" viewBox="0 0 21 21" fill="none" xmlns="http://www.w3.org/2000/svg">
<path d="M12.7837 0L0 12.7837L8.21625 21L21 8.21625L12.7837 0ZM1.82437 12.7837L12.7837 1.82437L19.1756 8.21625L8.21625 19.1756L1.82437 12.7837Z" fill="#AF0C04"/>
<path d="M5.47313 12.7838L4.55438 13.7026L7.29751 16.4457L8.21626 15.5269L9.18751 16.4326L12.7838 12.7838C12.1997 13.3679 11.3925 13.7301 10.5 13.7301C8.71632 13.7301 7.26995 12.2837 7.26995 10.5001C7.26995 9.60756 7.63088 8.80037 8.21626 8.21631L4.56751 11.8126L5.47313 12.7838Z" fill="#AF0C04"/>
<path d="M16.4325 7.31051L13.6894 4.56738L12.7706 5.48613L11.8125 4.56738L8.21625 8.21613C8.80031 7.63207 9.6075 7.26982 10.5 7.26982C12.2837 7.26982 13.7301 8.7162 13.7301 10.4999C13.7301 11.3924 13.3691 12.1996 12.7837 12.7836L16.4325 9.18738L15.5137 8.26863L16.4325 7.31051Z" fill="#AF0C04"/>
</svg>
