<svg width="17" height="12" viewBox="0 0 17 12" fill="none" xmlns="http://www.w3.org/2000/svg">
<path d="M1 6.79671C0.44772 6.79671 0 7.24441 0 7.79671C0 8.15411 0.18749 8.46771 0.46947 8.64451L3.15709 11.3321C3.54761 11.7227 4.18078 11.7227 4.5713 11.3321C4.96183 10.9416 4.96183 10.3084 4.5713 9.91791L3.45008 8.79671H11.0001C11.5523 8.79671 12.0001 8.34901 12.0001 7.79671C12.0001 7.24441 11.5523 6.79671 11.0001 6.79671H1.04945C1.04033 6.79661 1.03121 6.79661 1.02209 6.79671H1Z" fill="#AF0C04"/>
<path d="M15.0148 4.82834C15.5671 4.82834 16.0148 4.38064 16.0148 3.82834C16.0148 3.47094 15.8274 3.15734 15.5454 2.98051L12.8578 0.29289C12.4672 -0.09763 11.8341 -0.09763 11.4435 0.29289C11.053 0.68342 11.053 1.31658 11.4435 1.70711L12.5648 2.82833H5.01489C4.4626 2.82833 4.01489 3.27605 4.01489 3.82834C4.01489 4.38064 4.4626 4.82834 5.01489 4.82834H14.9654C14.9745 4.82844 14.9836 4.82844 14.9928 4.82834H15.0148Z" fill="#AF0C04"/>
</svg>
